<svg id="Layer_1" data-name="Layer 1" xmlns="http://www.w3.org/2000/svg" viewBox="0 0 595.28 595.28"><defs><style>.cls-1,.cls-3,.cls-4,.cls-5,.cls-6{fill:#010101;}.cls-1{opacity:0.2;}.cls-1,.cls-4,.cls-6{isolation:isolate;}.cls-2{fill:#fff;}.cls-3,.cls-5{fill-opacity:0;stroke:#010101;}.cls-3{stroke-width:6px;}.cls-4{opacity:0.2;}.cls-5{stroke-width:4px;}.cls-6{opacity:0.21;}</style></defs><title>graphic</title><path class="cls-1" d="M153,38.66l-23.92.6V309.5l23.92-.26Z"/><g id="Shape"><path class="cls-2" d="M99.07,493.46A87.16,87.16,0,1,1,186,406,87.15,87.15,0,0,1,99.07,493.46Z"/><path class="cls-3" d="M99.07,493.46A87.16,87.16,0,1,1,186,406,87.15,87.15,0,0,1,99.07,493.46Z"/></g><g id="Document"><path class="cls-2" d="M153.58,27.59H511.9V532H153.58Z"/><path class="cls-3" d="M153.58,27.59H511.9V532H153.58Z"/></g><path id="Sshadow_2" data-name="Sshadow 2" class="cls-4" d="M280,498.77v18.55L153,517.24l.27-24.36Z"/><path id="Shapeshadow_1" data-name="Shapeshadow 1" class="cls-4" d="M407.67,121.84l-24.32.28-.14,118.28,124.75.14.59-58.48Z"/><path class="cls-5" d="M98.81,435.36a29.06,29.06,0,1,1,29.05-29.06A29.06,29.06,0,0,1,98.81,435.36Z"/><g id="Business_card" data-name="Business card"><path class="cls-2" d="M397.15,113.88h182V226.61h-182Z"/><path class="cls-3" d="M397.15,113.88h182V226.61h-182Z"/></g><g id="CD_container" data-name="CD container"><path class="cls-2" d="M104.26,313.34H290.2V499.27H104.26Z"/><path class="cls-3" d="M104.26,313.34H290.2V499.27H104.26Z"/></g><path class="cls-2" d="M418.38,133H557.92V174.2H418.38Z"/><path class="cls-5" d="M418.38,133H557.92V174.2H418.38Z"/><path class="cls-2" d="M488.15,182.64a29.06,29.06,0,1,1,29.05-29.06A29.05,29.05,0,0,1,488.15,182.64Z"/><path class="cls-5" d="M488.15,182.64a29.06,29.06,0,1,1,29.05-29.06A29.05,29.05,0,0,1,488.15,182.64Z"/><path id="Shape-2" data-name="Shape" class="cls-5" d="M367.76,235.43H178.36"/><path class="cls-5" d="M178.36,159.79h189.4"/><path id="Shape-3" data-name="Shape" class="cls-5" d="M178.36,186.15h189.4"/><path id="Shape-4" data-name="Shape" class="cls-5" d="M178.36,211h189.4"/><path class="cls-2" d="M180.75,57.76h99.78v48H180.75Z"/><path class="cls-5" d="M180.75,57.76h99.78v48H180.75Z"/><path class="cls-2" d="M230.64,113.88c-17.88,0-32.37-14.94-32.37-33.38s14.49-33.39,32.37-33.39S263,62.06,263,80.5,248.51,113.88,230.64,113.88Z"/><path class="cls-5" d="M230.64,113.88c-17.88,0-32.37-14.94-32.37-33.38s14.49-33.39,32.37-33.39S263,62.06,263,80.5,248.51,113.88,230.64,113.88Z"/><path class="cls-2" d="M129.66,360.65H264.81v95.6H129.66Z"/><path class="cls-5" d="M129.66,360.65H264.81v95.6H129.66Z"/><path class="cls-2" d="M197.23,457.84a49.39,49.39,0,1,1,49.39-49.39A49.4,49.4,0,0,1,197.23,457.84Z"/><path class="cls-5" d="M197.23,457.84a49.39,49.39,0,1,1,49.39-49.39A49.4,49.4,0,0,1,197.23,457.84Z"/><path class="cls-6" d="M323.87,590.4c-140.67,0-254.7-3.44-254.7-7.68s114-7.69,254.7-7.69,254.7,3.44,254.7,7.69S464.53,590.4,323.87,590.4Z"/></svg>