<svg id="Layer_1" data-name="Layer 1" xmlns="http://www.w3.org/2000/svg" xmlns:xlink="http://www.w3.org/1999/xlink" viewBox="0 0 595.28 595.28"><defs><style>.cls-1{fill:url(#linear-gradient);}.cls-2,.cls-3,.cls-4{fill:#fff;}.cls-2{stroke:#ddd;}.cls-2,.cls-3,.cls-4,.cls-6{stroke-miterlimit:10;}.cls-2,.cls-3{stroke-width:3px;}.cls-3,.cls-4{stroke:#c4c4c4;}.cls-5{fill:#ddd;}.cls-6{fill:none;stroke:#000;stroke-width:10px;}</style><linearGradient id="linear-gradient" x1="269.81" y1="268.52" x2="495.94" y2="512.8" gradientUnits="userSpaceOnUse"><stop offset="0" stop-color="#a7a9ac"/><stop offset="0.78" stop-color="#f1f2f2"/></linearGradient></defs><title>phone</title><path class="cls-1" d="M211,466.85,321.5,589.2s94-5.81,153.18-59.39,90.08-104,101.11-142.45S582.68,347,582.68,347L382.91,125.85Z"/><rect x="201.2" y="113.56" width="193.96" height="368.39" rx="41.9" ry="41.9"/><rect class="cls-2" x="214.56" y="157.96" width="166.9" height="276.38"/><ellipse class="cls-3" cx="298.16" cy="456.1" rx="12.38" ry="13.29"/><rect class="cls-4" x="281.97" y="138.64" width="31.94" height="3.16" rx="1.58" ry="1.58"/><ellipse class="cls-4" cx="272.05" cy="140.22" rx="3.07" ry="3.29"/><ellipse class="cls-4" cx="298.01" cy="129.73" rx="2.17" ry="2.33"/><polygon class="cls-5" points="214.56 366.32 381.46 168.27 381.46 262.2 237.19 434.34 214.56 434.34 214.56 366.32"/><polygon class="cls-5" points="214.56 343.82 374.01 157.96 349.48 157.96 214.56 314.5 214.56 343.82"/><circle class="cls-6" cx="298.3" cy="297.64" r="291.56"/></svg>