<svg id="Layer_1" data-name="Layer 1" xmlns="http://www.w3.org/2000/svg" viewBox="0 0 595.28 595.28"><defs><style>.cls-1{fill:#fff;}.cls-2,.cls-4{fill:none;stroke-miterlimit:10;}.cls-2{stroke:#231f20;stroke-width:3px;}.cls-3,.cls-6{opacity:0.2;}.cls-4{stroke:#010101;stroke-width:8px;}.cls-5,.cls-6{fill:#010101;}</style></defs><title>Artboard 1</title><ellipse class="cls-1" cx="282.38" cy="306.27" rx="203" ry="194.09" transform="translate(-131.75 261.13) rotate(-41.1)"/><ellipse class="cls-2" cx="280.6" cy="308.07" rx="183.95" ry="175.88" transform="translate(-133.37 260.4) rotate(-41.1)"/><polygon class="cls-2" points="372.77 338.83 309.01 341.03 272.36 394.45 253.24 334.9 192.3 318.98 244.25 279.97 243.24 216.71 294.45 252.16 354.77 228.98 334.48 289.9 372.77 338.83"/><polygon class="cls-3" points="450.08 415.35 467.37 376.12 471.53 415.92 450.08 415.35"/><path class="cls-3" d="M385.23,384s67.12,13.27,92.71-40.44l-27.86,71.79Z"/><polygon class="cls-3" points="170.47 145.11 168.88 116.55 215.01 122.79 170.47 145.11"/><path class="cls-3" d="M229.8,120.12s-55.06,38-23.08,88.62l-36.25-63.63Z"/><path class="cls-3" d="M89.25,276.11l-7.67,32.21s77.87,128.85,211.54,198l28.5-5.66S160.26,407.84,89.25,276.11Z"/><ellipse class="cls-4" cx="282.38" cy="306.27" rx="204.76" ry="195.77" transform="translate(-131.75 261.13) rotate(-41.1)"/><path class="cls-1" d="M115.74,15.32,219.11,116.41l-55.52,4.72,15,43.24s28.54,51.95,51.7,77.55S338.59,352.79,366.55,370.39s59.83,37.28,59.83,37.28l43.37,14.06.8-58.45L575.9,466.72l-85,14.28-9.37,87.3L400.74,491l-25,26.34s-52.66-10.24-100.45-45.66S160.51,368.87,152.31,360.82,98.56,292.85,84,265A158.87,158.87,0,0,1,67.2,210.74L92,186.62l-75.6-73.41,86.38-13.32Z"/><polygon class="cls-3" points="412.28 509.6 511.97 409.39 469.46 367.66 474.85 421.81 401.43 489.5 412.28 509.6"/><polygon class="cls-3" points="78.69 176.79 178.39 76.58 220.9 118.32 166.33 113.61 99.05 187.34 78.69 176.79"/><path class="cls-5" d="M179.1,394.39C59.67,277.13,61.83,214.44,62,211.82l.11-1.88L164.54,111.7l4.34,4.85c0,.12-.51,15.55,13.46,45,12.82,27,40.74,71.46,101,130.66l1.63,1.6C398.54,404.65,447.84,412.26,471.53,415.91c1.4.22,2.72.42,4,.63l3.74,4.13-100.71,101-2.43-.41-3.83-.61c-24.64-3.8-75.89-11.71-191.47-124.6ZM71.52,213.67c.28,4.78,2.1,19.43,13.41,43.23,12.93,27.22,41.2,72.29,102.67,132.26C301.13,500,350.43,507.65,374.12,511.31l1.5.23,88.95-87.1c-26.4-4.44-78.23-18.17-186.37-123.79L276.51,299C183.22,207.41,164.12,149.11,160.3,126.72Z"/><polygon class="cls-5" points="484.73 579.42 398.99 495.23 405.81 488.37 477.37 558.63 485.76 477.63 569.05 466.77 476.16 375.58 479.24 420.67 469.75 421.73 466.89 366.96 470.66 356.6 589.77 473.55 494.41 485.97 484.73 579.42"/><polygon class="cls-5" points="89.75 191.77 4 107.58 97.94 96.87 109.33 2 229.11 119.6 214.32 122.26 162.9 120.61 163.85 111.18 209.28 113.7 116.39 22.5 106.45 105.36 25.02 114.64 96.58 184.9 89.75 191.77"/><ellipse class="cls-6" cx="296.54" cy="584.36" rx="246.91" ry="6.77"/></svg>