<svg id="Layer_1" data-name="Layer 1" xmlns="http://www.w3.org/2000/svg" xmlns:xlink="http://www.w3.org/1999/xlink" viewBox="0 0 595.28 595.28"><defs><style>.cls-1{fill:url(#linear-gradient);}.cls-2{fill:#f2f2f2;}.cls-2,.cls-4,.cls-5,.cls-6{stroke:#000;stroke-miterlimit:10;}.cls-2,.cls-5{stroke-width:15px;}.cls-3{fill:#cfcfce;}.cls-4,.cls-5,.cls-6{fill:none;}.cls-4{stroke-width:20px;}.cls-6{stroke-width:10px;}</style><linearGradient id="linear-gradient" x1="290.25" y1="287.13" x2="489.79" y2="513.97" gradientUnits="userSpaceOnUse"><stop offset="0" stop-color="#a7a9ac"/><stop offset="0.76" stop-color="#f1f2f2"/></linearGradient></defs><title>instagram</title><path class="cls-1" d="M325.76,590.12,174,420.94l-1.22-4.74,53.41,23.29,58-1.54L386.93,434s51-7.71,50.85-42.63-4.45-188.31-4.45-188.31l-7.85-22,.59-.33L582.29,353.17s-10.28,44.67-16.92,61-36.45,64.67-50.71,79.1S468.94,538.92,435,553.56,358.38,592.18,325.76,590.12Z"/><rect class="cls-2" x="169.2" y="170.11" width="265.78" height="265.78" rx="53.54" ry="53.54"/><path class="cls-3" d="M304.62,239.52s70.9,61.88,0,127.68c0,0,69.7-2.35,70.9-65.8S304.62,239.52,304.62,239.52Z"/><circle class="cls-4" cx="302.09" cy="303" r="69.4"/><path class="cls-3" d="M320.72,172.34s82.14,1.15,82.14,130.66c0,78.62-5.31,127.7-92.1,127.7,0,0,110.63,18.93,122-30.38s13.54-187.09-19.11-221.95C396.67,160.21,320.72,172.34,320.72,172.34Z"/><circle cx="384.21" cy="220.88" r="18.65"/><rect class="cls-5" x="169.2" y="170.11" width="265.78" height="265.78" rx="53.54" ry="53.54"/><circle class="cls-6" cx="297.64" cy="298.56" r="291.56"/></svg>