<svg id="Layer_1" data-name="Layer 1" xmlns="http://www.w3.org/2000/svg" xmlns:xlink="http://www.w3.org/1999/xlink" viewBox="0 0 595.28 595.28"><defs><style>.cls-1{fill:url(#linear-gradient);}.cls-2{fill:none;stroke:#000;stroke-miterlimit:10;stroke-width:10px;}.cls-3{fill:#fff;}.cls-4{fill:#cfcfce;}</style><linearGradient id="linear-gradient" x1="281" y1="273.17" x2="447.03" y2="471.06" gradientUnits="userSpaceOnUse"><stop offset="0" stop-color="#a7a9ac"/><stop offset="1" stop-color="#f1f2f2"/></linearGradient></defs><title>mail</title><path class="cls-1" d="M313.24,591.9,144.83,396.4l307-200.83L583,347.56s-5.21,92-74.14,155.27S391.68,585.17,313.24,591.9"/><circle class="cls-2" cx="297.77" cy="298.93" r="291.56"/><rect class="cls-3" x="148.7" y="193.74" width="300.67" height="205.2" rx="20.69" ry="20.69"/><path class="cls-4" d="M351.71,193.53S409.38,208,377.13,260l67.48-63.72Z"/><path class="cls-4" d="M368.46,267.85s99.86,76.79-24.74,128.87l97.33-.44s9,6.42,9-30.28S450,196.29,450,196.29,416,223.09,368.46,267.85Z"/><polygon class="cls-4" points="147.42 200.17 144.88 206.43 147.47 226.17 297.69 359.72 447.54 226.17 447.58 200.17 297.5 335.99 147.42 200.17"/><rect class="cls-2" x="144.83" y="193.74" width="305.25" height="202.76" rx="12" ry="12"/><line class="cls-2" x1="147.37" y1="393.74" x2="256.34" y2="295.12"/><line class="cls-2" x1="447.54" y1="393.74" x2="338.57" y2="295.12"/><polyline class="cls-2" points="147.37 196.51 297.45 332.33 447.54 196.51"/></svg>