<svg id="Layer_1" data-name="Layer 1" xmlns="http://www.w3.org/2000/svg" viewBox="0 0 595.28 595.28"><defs><style>.cls-1{fill:#fff;stroke:#000;stroke-miterlimit:10;stroke-width:7px;}.cls-2{fill:#231f20;}.cls-2,.cls-3{opacity:0.2;}.cls-3{fill:#010101;}</style></defs><title>illustration</title><path class="cls-1" d="M331.28,537.31C155.25,531.68,51.17,418.23,66.78,282,80.69,160.58,195.54,67.88,344.08,77.41l1.59.12c62.06,4.93,95.62,70.12,61.44,117.94-16.05,22.46-28.5,48.19-28.66,74.11-.17,27.05,22.2,64.92,59,92.55,47.65,35.78,52,94.39,2.48,135.85C408.72,524.11,366.44,538.44,331.28,537.31Z"/><circle class="cls-1" cx="175.87" cy="425.4" r="29.08"/><ellipse class="cls-1" cx="315.21" cy="149.74" rx="59.84" ry="32.99"/><path class="cls-1" d="M219.54,410.89s-20.48-13-50.57,3.38-7.93,47.36-34.8,78.18c0,0-13.53,15.15-32.43,11.81,0,0,18.9,20.17,63.22,14.86s77.26-43.75,74-71.41S219.54,410.89,219.54,410.89Z"/><path class="cls-1" d="M266.52,367.38l3.34,2-24.09,39.8-34.26-20.74,24.09-39.8,3.62,2.18c18.39-39.5,48.14-94.37,84-153.64C391,85.27,455,0,466.19,6.79s-34.69,103-102.46,214.93C327.84,281,293,332.78,266.52,367.38Z"/><polygon class="cls-1" points="239.22 350.85 266.52 367.38 271.51 360.8 242.63 343.62 239.22 350.85"/><path class="cls-2" d="M379.11,81.35S272,231.94,239.17,297.59l-49.08,98.19s-29.3-1.08-39.61,16.82a95.37,95.37,0,0,0-11.93,36.89c-6.29,38-31.74,47.53-38.56,49.28H126.4c4.23.7,13-13.34,13.73-14.83,2.77-5.54,9.36-19.78,9.85-30.71.62-13.86,4.77-37.14,30.42-44s44.41,6,44.41,6l5.84,7.48L239.8,406l-28.29-17.53,24.09-39.8,3.62,2.18,81.81-148L440.33,24.28S446.21-13.7,379.11,81.35Z"/><path class="cls-2" d="M228.55,398.39s-9.72-17.8,14.89-45l-7.84-4.74-24.09,39.8Z"/><path class="cls-2" d="M246.89,355.5l-7.67-4.65,49.83-93.53,62.07-105.07,62.25-91.33,35.42-43.1L457.45,10S270.76,286.43,246.89,355.5Z"/><circle class="cls-1" cx="187.95" cy="182.74" r="29.08"/><circle class="cls-1" cx="131.37" cy="252.11" r="29.08"/><circle class="cls-1" cx="127.69" cy="344.45" r="29.08"/><circle class="cls-1" cx="280.17" cy="474.73" r="29.08"/><ellipse class="cls-3" cx="297.64" cy="583.69" rx="261.82" ry="7.17"/></svg>