<svg id="Layer_1" data-name="Layer 1" xmlns="http://www.w3.org/2000/svg" xmlns:xlink="http://www.w3.org/1999/xlink" viewBox="0 0 595.28 595.28"><defs><style>.cls-1{fill:url(#linear-gradient);}.cls-2{fill:none;stroke:#000;}.cls-2,.cls-3{stroke-miterlimit:10;stroke-width:10px;}.cls-3{fill:#fff;stroke:#010101;}.cls-4{fill:#c6c6c5;}</style><linearGradient id="linear-gradient" x1="281.64" y1="284.83" x2="465.54" y2="483.48" gradientUnits="userSpaceOnUse"><stop offset="0" stop-color="#a7a9ac"/><stop offset="0.78" stop-color="#f1f2f2"/></linearGradient></defs><title>linkedin</title><path class="cls-1" d="M174.92,417.24l155.25,172s106.13-13.14,162.52-74.85,73.46-86.07,86.9-142.2v-13L418.4,180.61l-17-6.6Z"/><circle class="cls-2" cx="297.64" cy="297.64" r="291.56"/><rect class="cls-3" x="163.97" y="166.57" width="266.07" height="266.07" rx="56.83" ry="56.83"/><path id="LinkedIn" class="cls-4" d="M398.28,327.72V398H357.51l-5.78-7.58,5.78-58c0-16.48-5.89-27.73-20.65-27.73-11.26,0-18,7.58-20.92,14.91-1.07,2.62-1.35,6.27-1.35,9.94V398H273.81L268,390.46c.13-29.41,41.21-113.52,40.78-122.63l5.78,7.58v17.38c-.08.13-.19.27-.27.39h.27v-.39c5.42-8.35,14.92-25.45,36.57-25.45C378,267.34,398.28,290.05,398.28,327.72ZM228,209.59c-14,0-24,10.89-24,22.93,0,11.77,13,26.15,26.66,26.15h.27c14.23,0,23.07-9.42,23.07-21.2C253.68,225.44,241.94,209.59,228,209.59ZM210.5,398h40.76V275.41l-5.78-7.58L204.72,390.46Z"/><path id="LinkedIn-2" data-name="LinkedIn" d="M392.5,320.14v70.32H351.73V324.85c0-16.48-5.89-27.73-20.65-27.73-11.26,0-18,7.58-20.92,14.92-1.07,2.62-1.35,6.27-1.35,9.94v68.48H268s.55-111.12,0-122.63h40.78v17.38c-.08.13-.19.27-.27.4h.27v-.4c5.42-8.34,15.09-20.26,36.75-20.26C372.39,265,392.5,282.48,392.5,320.14ZM225.37,208.71c-14,0-23.07,9.15-23.07,21.19,0,11.77,8.86,21.2,22.53,21.2h.27c14.23,0,23.07-9.43,23.07-21.2C247.9,217.86,239.33,208.71,225.37,208.71ZM204.72,390.46h40.76V267.83H204.72Z"/></svg>