<svg id="Layer_1" data-name="Layer 1" xmlns="http://www.w3.org/2000/svg" viewBox="0 0 595.28 595.28"><defs><style>.cls-1,.cls-5,.cls-7{fill:#fff;}.cls-1,.cls-2,.cls-3,.cls-4,.cls-5,.cls-6,.cls-7{stroke:#231f20;}.cls-1,.cls-2,.cls-3,.cls-4,.cls-5,.cls-6,.cls-7,.cls-8{stroke-miterlimit:10;}.cls-1,.cls-2{stroke-width:6px;}.cls-2,.cls-3,.cls-4,.cls-6,.cls-8{fill:none;}.cls-3{stroke-width:2px;}.cls-5,.cls-6,.cls-8{stroke-width:3px;}.cls-7{stroke-width:4px;}.cls-8{stroke:#000;}.cls-9{fill:#231f20;opacity:0.2;}</style></defs><title>userinterface</title><rect class="cls-1" x="16.45" y="53.59" width="436.78" height="299.86" rx="36.01" ry="36.01"/><line class="cls-2" x1="16.45" y1="92.59" x2="453.23" y2="92.59"/><rect class="cls-3" x="104.29" y="65.6" width="315.81" height="15.79" rx="4.64" ry="4.64"/><circle class="cls-4" cx="90.99" cy="73.49" r="6.91"/><circle class="cls-4" cx="71.95" cy="73.49" r="6.91"/><circle class="cls-4" cx="52.9" cy="73.49" r="6.91"/><circle class="cls-5" cx="234.47" cy="138.21" r="30.33"/><line class="cls-6" x1="162.75" y1="185.49" x2="306.86" y2="184.64"/><rect class="cls-6" x="78.86" y="195.81" width="72.68" height="91.92"/><rect class="cls-6" x="158.45" y="195.8" width="72.68" height="91.92"/><rect class="cls-6" x="237.68" y="195.8" width="72.68" height="91.92"/><rect class="cls-6" x="317.05" y="195.8" width="72.68" height="91.92"/><rect class="cls-6" x="79.4" y="293.32" width="72.68" height="60.13"/><rect class="cls-6" x="159" y="293.31" width="72.68" height="60.14"/><rect class="cls-6" x="238.23" y="293.31" width="72.68" height="60.14"/><rect class="cls-6" x="317.6" y="293.31" width="72.68" height="60.14"/><rect class="cls-1" x="115.74" y="219.02" width="436.78" height="299.86" rx="36.01" ry="36.01"/><line class="cls-2" x1="115.74" y1="258.02" x2="552.53" y2="258.02"/><rect class="cls-3" x="203.58" y="231.03" width="315.81" height="15.79" rx="4.64" ry="4.64"/><circle class="cls-4" cx="190.29" cy="238.92" r="6.91"/><circle class="cls-4" cx="171.24" cy="238.92" r="6.91"/><circle class="cls-4" cx="152.19" cy="238.92" r="6.91"/><line class="cls-7" x1="218.41" y1="255.52" x2="218.41" y2="518.88"/><rect class="cls-7" x="244.51" y="299.33" width="110.79" height="69.62"/><rect class="cls-7" x="364.84" y="299.33" width="153.4" height="69.62"/><rect class="cls-7" x="299.9" y="383.43" width="141.63" height="90.71"/><rect class="cls-7" x="244.51" y="383.43" width="44.94" height="90.71"/><rect class="cls-7" x="449.81" y="383.43" width="68.42" height="90.71"/><circle class="cls-8" cx="168.27" cy="330.33" r="33.03"/><line class="cls-8" x1="133.01" y1="383.43" x2="203.58" y2="383.43"/><line class="cls-8" x1="132.98" y1="408.31" x2="203.56" y2="408.31"/><line class="cls-8" x1="132.97" y1="431.79" x2="203.54" y2="431.79"/><ellipse class="cls-9" cx="297.64" cy="583.33" rx="296.34" ry="7.07"/><path class="cls-9" d="M453.23,195.8H138.83A47.86,47.86,0,0,0,91,243.65v109.8h24.75l-.37-93A41.23,41.23,0,0,1,156.61,219H453.23Z"/></svg>