<svg id="Layer_1" data-name="Layer 1" xmlns="http://www.w3.org/2000/svg" viewBox="0 0 595.28 595.28"><defs><style>.cls-1{fill:#fff;}.cls-2{fill:#dcdbdb;}.cls-3{fill:#a9a8a9;}.cls-4{stroke:#000;stroke-miterlimit:10;stroke-width:2px;}.cls-5{opacity:0.19;}</style></defs><title>3Dmodel</title><polygon class="cls-1" points="299.05 454.56 298.19 558.21 544.25 426.05 544.25 138.04 449.77 197.38 446.06 198.76 445.92 370.58 299.05 454.56"/><polygon class="cls-2" points="298.96 10.82 538.14 138.97 442.11 196.49 300.89 118.42 155.56 196.93 58.95 141.1 298.96 10.82"/><polygon class="cls-3" points="152.44 198.79 152.6 373.13 299.84 451.77 298.19 558.21 224.65 519.16 58.95 425.16 58.95 141.1 152.44 198.79"/><path class="cls-4" d="M298.19,562.23l-242.75-135V141.1L301.71,284.19ZM59,425.16,298.19,558.21v-272L59,143.69Z"/><path class="cls-4" d="M298.19,562.23,298,283l.86-.51L544.25,138v288ZM301.5,285V557L540.74,424V142.52Z"/><path class="cls-4" d="M299,285.52,55.44,141.1,298.94,6.82l.84.45L544.25,138ZM61.14,141.28,299,281.44,538.14,139,299,10.82Z"/><polygon class="cls-2" points="154.99 371.49 298.46 449.19 443.46 369.1 299.01 282.84 154.99 371.49"/><polygon class="cls-3" points="301.23 119.68 299.01 286.53 445.79 369.1 445.79 196.9 301.23 119.68"/><polygon class="cls-1" points="153.21 195.95 297.16 116.63 299.01 282.84 153.21 369.6 153.21 195.95"/><path d="M448.38,370.61,295.57,283.82v-1l2.13-169.09h0l1.75-1.47,148.92,82.83Zm-147.15-90L442.75,364.9V198.39L301.23,119.68Z"/><path d="M148.54,372.47V195.78l150.93-83.54,1.88,172.28-1.38.83Zm5.64-173.37V365.61l141.53-84.29V120.39Z"/><path d="M299,453l-1.35-.72L148.54,372.47,299,280l.9.54,148.48,90.11ZM157.57,370.78,299,446.55,439.63,369.4,299,286.53Z"/><ellipse class="cls-5" cx="297.64" cy="587.24" rx="288.24" ry="5.22"/></svg>