<svg xmlns="http://www.w3.org/2000/svg" xmlns:xlink="http://www.w3.org/1999/xlink" viewBox="0 0 1746.53 1746.53"><defs><style>.cls-1,.cls-15,.cls-3,.cls-4,.cls-5{fill:#fff;}.cls-2{fill:url(#linear-gradient);}.cls-3{stroke:#ddd;}.cls-11,.cls-12,.cls-13,.cls-15,.cls-3,.cls-4,.cls-5,.cls-7{stroke-miterlimit:10;}.cls-3,.cls-4{stroke-width:3px;}.cls-4,.cls-5{stroke:#c4c4c4;}.cls-6{fill:#ddd;}.cls-12,.cls-13,.cls-7{fill:none;}.cls-11,.cls-12,.cls-13,.cls-7{stroke:#000;}.cls-15,.cls-7{stroke-width:10px;}.cls-8{fill:url(#linear-gradient-2);}.cls-9{fill:#cfcfce;}.cls-10{fill:url(#linear-gradient-3);}.cls-11{fill:#f2f2f2;}.cls-11,.cls-13{stroke-width:15px;}.cls-12{stroke-width:20px;}.cls-14{fill:url(#linear-gradient-4);}.cls-15{stroke:#010101;}.cls-16{fill:#c6c6c5;}</style><linearGradient id="linear-gradient" x1="1279.05" y1="1285.36" x2="1505.18" y2="1529.64" gradientUnits="userSpaceOnUse"><stop offset="0" stop-color="#a7a9ac"/><stop offset="0.78" stop-color="#f1f2f2"/></linearGradient><linearGradient id="linear-gradient-2" x1="1290.65" y1="410.76" x2="1456.68" y2="608.65" gradientUnits="userSpaceOnUse"><stop offset="0" stop-color="#a7a9ac"/><stop offset="1" stop-color="#f1f2f2"/></linearGradient><linearGradient id="linear-gradient-3" x1="433.99" y1="421.16" x2="633.53" y2="648" gradientUnits="userSpaceOnUse"><stop offset="0" stop-color="#a7a9ac"/><stop offset="0.76" stop-color="#f1f2f2"/></linearGradient><linearGradient id="linear-gradient-4" x1="425.38" y1="1299.79" x2="609.28" y2="1498.45" xlink:href="#linear-gradient"/></defs><title>Asset 1</title><g id="Layer_2" data-name="Layer 2"><g id="Layer_1-2" data-name="Layer 1"><rect class="cls-1" width="1746.53" height="1746.53"/><path class="cls-2" d="M1220.28,1483.69,1330.74,1606s94-5.81,153.18-59.39,90.08-104,101.11-142.45,6.89-40.39,6.89-40.39l-199.77-221.12Z"/><rect x="1210.45" y="1130.4" width="193.96" height="368.39" rx="41.9" ry="41.9"/><rect class="cls-3" x="1223.81" y="1174.8" width="166.9" height="276.38"/><ellipse class="cls-4" cx="1307.4" cy="1472.95" rx="12.38" ry="13.29"/><rect class="cls-5" x="1291.22" y="1155.48" width="31.94" height="3.16" rx="1.58" ry="1.58"/><ellipse class="cls-5" cx="1281.29" cy="1157.06" rx="3.07" ry="3.29"/><ellipse class="cls-5" cx="1307.25" cy="1146.57" rx="2.17" ry="2.33"/><polygon class="cls-6" points="1223.81 1383.16 1390.7 1185.12 1390.7 1279.04 1246.43 1451.18 1223.81 1451.18 1223.81 1383.16"/><polygon class="cls-6" points="1223.81 1360.66 1383.25 1174.8 1358.72 1174.8 1223.81 1331.34 1223.81 1360.66"/><circle class="cls-7" cx="1307.54" cy="1314.48" r="291.56"/><path class="cls-8" d="M1322.89,729.48,1154.48,534l307-200.83,131.14,152s-5.2,92-74.13,155.26-117.16,82.34-195.6,89.07"/><circle class="cls-7" cx="1307.42" cy="436.52" r="291.56"/><rect class="cls-1" x="1158.35" y="331.33" width="300.67" height="205.2" rx="20.69" ry="20.69"/><path class="cls-9" d="M1361.36,331.11s57.67,14.46,25.42,66.48l67.49-63.72Z"/><path class="cls-9" d="M1378.12,405.43s99.85,76.8-24.75,128.87l97.34-.43s9,6.42,9-30.29,0-169.71,0-169.71S1425.65,360.67,1378.12,405.43Z"/><polygon class="cls-9" points="1157.08 337.75 1154.53 344.01 1157.12 363.75 1307.35 497.3 1457.19 363.75 1457.24 337.75 1307.16 473.57 1157.08 337.75"/><rect class="cls-7" x="1154.48" y="331.33" width="305.25" height="202.76" rx="12" ry="12"/><line class="cls-7" x1="1157.03" y1="531.32" x2="1266" y2="432.7"/><line class="cls-7" x1="1457.19" y1="531.32" x2="1348.22" y2="432.7"/><polyline class="cls-7" points="1157.03 334.09 1307.11 469.91 1457.19 334.09"/><path class="cls-10" d="M469.5,724.15,317.74,555l-1.22-4.74,53.41,23.28L428,572,530.68,568s51-7.71,50.84-42.63-4.45-188.31-4.45-188.31l-7.85-22,.59-.33L726,487.2s-10.28,44.66-16.92,61-36.45,64.67-50.71,79.09-45.72,45.66-79.68,60.3S502.12,726.21,469.5,724.15Z"/><rect class="cls-11" x="312.94" y="304.14" width="265.78" height="265.78" rx="53.54" ry="53.54"/><path class="cls-9" d="M448.36,373.55s70.9,61.88,0,127.68c0,0,69.7-2.35,70.9-65.8S448.36,373.55,448.36,373.55Z"/><circle class="cls-12" cx="445.83" cy="437.03" r="69.4"/><path class="cls-9" d="M464.46,306.36S546.6,307.52,546.6,437c0,78.62-5.3,127.7-92.1,127.7,0,0,110.63,18.93,122-30.39s13.54-187.08-19.1-221.94C540.41,294.23,464.46,306.36,464.46,306.36Z"/><circle cx="527.95" cy="354.91" r="18.65"/><rect class="cls-13" x="312.94" y="304.14" width="265.78" height="265.78" rx="53.54" ry="53.54"/><circle class="cls-7" cx="441.38" cy="432.59" r="291.56"/><path class="cls-14" d="M318.66,1432.2l155.25,172S580,1591,636.43,1529.31s73.46-86.07,86.9-142.19v-13L562.15,1195.58l-17.06-6.6Z"/><circle class="cls-7" cx="441.38" cy="1312.6" r="291.56"/><rect class="cls-15" x="307.72" y="1181.53" width="266.07" height="266.07" rx="56.83" ry="56.83"/><path id="LinkedIn" class="cls-16" d="M542,1342.69V1413H501.26l-5.78-7.58,5.78-58c0-16.49-5.9-27.73-20.66-27.73-11.26,0-18,7.58-20.91,14.91-1.08,2.62-1.36,6.27-1.36,9.94V1413H417.55l-5.78-7.58c.13-29.41,41.21-113.52,40.78-122.64l5.78,7.58v17.38c-.08.13-.19.27-.27.4h.27v-.4c5.42-8.34,14.92-25.45,36.58-25.45C521.74,1282.3,542,1305,542,1342.69ZM371.73,1224.56c-14,0-24,10.89-24,22.92,0,11.77,13,26.16,26.66,26.16h.28c14.22,0,23.06-9.43,23.06-21.2C397.42,1240.4,385.69,1224.56,371.73,1224.56ZM354.24,1413H395V1290.37l-5.78-7.58-40.77,122.64Z"/><path id="LinkedIn-2" data-name="LinkedIn" d="M536.24,1335.11v70.32H495.48v-65.61c0-16.48-5.9-27.73-20.66-27.73-11.26,0-18,7.58-20.91,14.91-1.08,2.62-1.36,6.27-1.36,9.94v68.49H411.77s.55-111.12,0-122.64h40.78v17.39c-.08.13-.19.27-.27.39h.27v-.39c5.42-8.35,15.09-20.27,36.75-20.27C516.13,1279.91,536.24,1297.44,536.24,1335.11ZM369.12,1223.68c-14,0-23.08,9.15-23.08,21.18,0,11.77,8.86,21.2,22.53,21.2h.28c14.22,0,23.06-9.43,23.06-21.2C391.64,1232.83,383.07,1223.68,369.12,1223.68Zm-20.66,181.75h40.77V1282.79H348.46Z"/></g></g></svg>